<svg width="1363" height="297" viewBox="0 0 1363 297" fill="none" xmlns="http://www.w3.org/2000/svg">
<path d="M0 15C0 6.71573 6.71573 0 15 0H37V297H15C6.71573 297 0 290.284 0 282V15Z" fill="#FB724D"/>
<path d="M37 0H1066V297H37V0Z" fill="#F0F0F0"/>
<path d="M113.795 70.8867V75H95.6543V70.8867H113.795ZM113.531 52.3418L97.9922 75H94.2832V71.9766L109.945 49.4062H113.531V52.3418ZM111.721 49.4062V53.5371H94.3008V49.4062H111.721ZM127.102 70.7109V62.2383C127.102 61.6289 127.002 61.1074 126.803 60.6738C126.604 60.2285 126.293 59.8828 125.871 59.6367C125.461 59.3906 124.928 59.2676 124.271 59.2676C123.709 59.2676 123.223 59.3672 122.812 59.5664C122.402 59.7539 122.086 60.0293 121.863 60.3926C121.641 60.7441 121.529 61.1602 121.529 61.6406H116.467C116.467 60.832 116.654 60.0645 117.029 59.3379C117.404 58.6113 117.949 57.9727 118.664 57.4219C119.379 56.8594 120.229 56.4199 121.213 56.1035C122.209 55.7871 123.322 55.6289 124.553 55.6289C126.029 55.6289 127.342 55.875 128.49 56.3672C129.639 56.8594 130.541 57.5977 131.197 58.582C131.865 59.5664 132.199 60.7969 132.199 62.2734V70.4121C132.199 71.4551 132.264 72.3105 132.393 72.9785C132.521 73.6348 132.709 74.209 132.955 74.7012V75H127.84C127.594 74.4844 127.406 73.8398 127.277 73.0664C127.16 72.2812 127.102 71.4961 127.102 70.7109ZM127.77 63.416L127.805 66.2812H124.975C124.307 66.2812 123.727 66.3574 123.234 66.5098C122.742 66.6621 122.338 66.8789 122.021 67.1602C121.705 67.4297 121.471 67.7461 121.318 68.1094C121.178 68.4727 121.107 68.8711 121.107 69.3047C121.107 69.7383 121.207 70.1309 121.406 70.4824C121.605 70.8223 121.893 71.0918 122.268 71.291C122.643 71.4785 123.082 71.5723 123.586 71.5723C124.348 71.5723 125.01 71.4199 125.572 71.1152C126.135 70.8105 126.568 70.4355 126.873 69.9902C127.189 69.5449 127.354 69.123 127.365 68.7246L128.701 70.8691C128.514 71.3496 128.256 71.8477 127.928 72.3633C127.611 72.8789 127.207 73.3652 126.715 73.8223C126.223 74.2676 125.631 74.6367 124.939 74.9297C124.248 75.2109 123.428 75.3516 122.479 75.3516C121.271 75.3516 120.176 75.1113 119.191 74.6309C118.219 74.1387 117.445 73.4648 116.871 72.6094C116.309 71.7422 116.027 70.7578 116.027 69.6562C116.027 68.6602 116.215 67.7754 116.59 67.002C116.965 66.2285 117.516 65.5781 118.242 65.0508C118.98 64.5117 119.9 64.1074 121.002 63.8379C122.104 63.5566 123.381 63.416 124.834 63.416H127.77ZM143.959 71.3965C144.58 71.3965 145.131 71.2793 145.611 71.0449C146.092 70.7988 146.467 70.459 146.736 70.0254C147.018 69.5801 147.164 69.0586 147.176 68.4609H151.939C151.928 69.7969 151.57 70.9863 150.867 72.0293C150.164 73.0605 149.221 73.875 148.037 74.4727C146.854 75.0586 145.529 75.3516 144.064 75.3516C142.588 75.3516 141.299 75.1055 140.197 74.6133C139.107 74.1211 138.199 73.4414 137.473 72.5742C136.746 71.6953 136.201 70.6758 135.838 69.5156C135.475 68.3438 135.293 67.0898 135.293 65.7539V65.2441C135.293 63.8965 135.475 62.6426 135.838 61.4824C136.201 60.3105 136.746 59.291 137.473 58.4238C138.199 57.5449 139.107 56.8594 140.197 56.3672C141.287 55.875 142.564 55.6289 144.029 55.6289C145.588 55.6289 146.953 55.9277 148.125 56.5254C149.309 57.123 150.234 57.9785 150.902 59.0918C151.582 60.1934 151.928 61.5 151.939 63.0117H147.176C147.164 62.3789 147.029 61.8047 146.771 61.2891C146.525 60.7734 146.162 60.3633 145.682 60.0586C145.213 59.7422 144.633 59.584 143.941 59.584C143.203 59.584 142.6 59.7422 142.131 60.0586C141.662 60.3633 141.299 60.7852 141.041 61.3242C140.783 61.8516 140.602 62.4551 140.496 63.1348C140.402 63.8027 140.355 64.5059 140.355 65.2441V65.7539C140.355 66.4922 140.402 67.2012 140.496 67.8809C140.59 68.5605 140.766 69.1641 141.023 69.6914C141.293 70.2188 141.662 70.6348 142.131 70.9395C142.6 71.2441 143.209 71.3965 143.959 71.3965ZM159.938 47.9824V75H154.875V47.9824H159.938ZM171.926 55.9805L163.664 65.4023L159.234 69.8848L157.389 66.2285L160.904 61.7637L165.844 55.9805H171.926ZM166.67 75L161.045 66.2109L164.543 63.1523L172.506 75H166.67ZM184.371 70.7109V62.2383C184.371 61.6289 184.271 61.1074 184.072 60.6738C183.873 60.2285 183.562 59.8828 183.141 59.6367C182.73 59.3906 182.197 59.2676 181.541 59.2676C180.979 59.2676 180.492 59.3672 180.082 59.5664C179.672 59.7539 179.355 60.0293 179.133 60.3926C178.91 60.7441 178.799 61.1602 178.799 61.6406H173.736C173.736 60.832 173.924 60.0645 174.299 59.3379C174.674 58.6113 175.219 57.9727 175.934 57.4219C176.648 56.8594 177.498 56.4199 178.482 56.1035C179.479 55.7871 180.592 55.6289 181.822 55.6289C183.299 55.6289 184.611 55.875 185.76 56.3672C186.908 56.8594 187.811 57.5977 188.467 58.582C189.135 59.5664 189.469 60.7969 189.469 62.2734V70.4121C189.469 71.4551 189.533 72.3105 189.662 72.9785C189.791 73.6348 189.979 74.209 190.225 74.7012V75H185.109C184.863 74.4844 184.676 73.8398 184.547 73.0664C184.43 72.2812 184.371 71.4961 184.371 70.7109ZM185.039 63.416L185.074 66.2812H182.244C181.576 66.2812 180.996 66.3574 180.504 66.5098C180.012 66.6621 179.607 66.8789 179.291 67.1602C178.975 67.4297 178.74 67.7461 178.588 68.1094C178.447 68.4727 178.377 68.8711 178.377 69.3047C178.377 69.7383 178.477 70.1309 178.676 70.4824C178.875 70.8223 179.162 71.0918 179.537 71.291C179.912 71.4785 180.352 71.5723 180.855 71.5723C181.617 71.5723 182.279 71.4199 182.842 71.1152C183.404 70.8105 183.838 70.4355 184.143 69.9902C184.459 69.5449 184.623 69.123 184.635 68.7246L185.971 70.8691C185.783 71.3496 185.525 71.8477 185.197 72.3633C184.881 72.8789 184.477 73.3652 183.984 73.8223C183.492 74.2676 182.9 74.6367 182.209 74.9297C181.518 75.2109 180.697 75.3516 179.748 75.3516C178.541 75.3516 177.445 75.1113 176.461 74.6309C175.488 74.1387 174.715 73.4648 174.141 72.6094C173.578 71.7422 173.297 70.7578 173.297 69.6562C173.297 68.6602 173.484 67.7754 173.859 67.002C174.234 66.2285 174.785 65.5781 175.512 65.0508C176.25 64.5117 177.17 64.1074 178.271 63.8379C179.373 63.5566 180.65 63.416 182.104 63.416H185.039ZM198.434 60.1289V75H193.371V55.9805H198.135L198.434 60.1289ZM204.164 55.8574L204.076 60.5508C203.83 60.5156 203.531 60.4863 203.18 60.4629C202.84 60.4277 202.529 60.4102 202.248 60.4102C201.533 60.4102 200.912 60.5039 200.385 60.6914C199.869 60.8672 199.436 61.1309 199.084 61.4824C198.744 61.834 198.486 62.2617 198.311 62.7656C198.146 63.2695 198.053 63.8438 198.029 64.4883L197.01 64.1719C197.01 62.9414 197.133 61.8105 197.379 60.7793C197.625 59.7363 197.982 58.8281 198.451 58.0547C198.932 57.2812 199.518 56.6836 200.209 56.2617C200.9 55.8398 201.691 55.6289 202.582 55.6289C202.863 55.6289 203.15 55.6523 203.443 55.6992C203.736 55.7344 203.977 55.7871 204.164 55.8574ZM211.898 55.9805V75H206.818V55.9805H211.898ZM206.502 51.0234C206.502 50.2852 206.76 49.6758 207.275 49.1953C207.791 48.7148 208.482 48.4746 209.35 48.4746C210.205 48.4746 210.891 48.7148 211.406 49.1953C211.934 49.6758 212.197 50.2852 212.197 51.0234C212.197 51.7617 211.934 52.3711 211.406 52.8516C210.891 53.332 210.205 53.5723 209.35 53.5723C208.482 53.5723 207.791 53.332 207.275 52.8516C206.76 52.3711 206.502 51.7617 206.502 51.0234ZM226.348 70.7109V62.2383C226.348 61.6289 226.248 61.1074 226.049 60.6738C225.85 60.2285 225.539 59.8828 225.117 59.6367C224.707 59.3906 224.174 59.2676 223.518 59.2676C222.955 59.2676 222.469 59.3672 222.059 59.5664C221.648 59.7539 221.332 60.0293 221.109 60.3926C220.887 60.7441 220.775 61.1602 220.775 61.6406H215.713C215.713 60.832 215.9 60.0645 216.275 59.3379C216.65 58.6113 217.195 57.9727 217.91 57.4219C218.625 56.8594 219.475 56.4199 220.459 56.1035C221.455 55.7871 222.568 55.6289 223.799 55.6289C225.275 55.6289 226.588 55.875 227.736 56.3672C228.885 56.8594 229.787 57.5977 230.443 58.582C231.111 59.5664 231.445 60.7969 231.445 62.2734V70.4121C231.445 71.4551 231.51 72.3105 231.639 72.9785C231.768 73.6348 231.955 74.209 232.201 74.7012V75H227.086C226.84 74.4844 226.652 73.8398 226.523 73.0664C226.406 72.2812 226.348 71.4961 226.348 70.7109ZM227.016 63.416L227.051 66.2812H224.221C223.553 66.2812 222.973 66.3574 222.48 66.5098C221.988 66.6621 221.584 66.8789 221.268 67.1602C220.951 67.4297 220.717 67.7461 220.564 68.1094C220.424 68.4727 220.354 68.8711 220.354 69.3047C220.354 69.7383 220.453 70.1309 220.652 70.4824C220.852 70.8223 221.139 71.0918 221.514 71.291C221.889 71.4785 222.328 71.5723 222.832 71.5723C223.594 71.5723 224.256 71.4199 224.818 71.1152C225.381 70.8105 225.814 70.4355 226.119 69.9902C226.436 69.5449 226.6 69.123 226.611 68.7246L227.947 70.8691C227.76 71.3496 227.502 71.8477 227.174 72.3633C226.857 72.8789 226.453 73.3652 225.961 73.8223C225.469 74.2676 224.877 74.6367 224.186 74.9297C223.494 75.2109 222.674 75.3516 221.725 75.3516C220.518 75.3516 219.422 75.1113 218.438 74.6309C217.465 74.1387 216.691 73.4648 216.117 72.6094C215.555 71.7422 215.273 70.7578 215.273 69.6562C215.273 68.6602 215.461 67.7754 215.836 67.002C216.211 66.2285 216.762 65.5781 217.488 65.0508C218.227 64.5117 219.146 64.1074 220.248 63.8379C221.35 63.5566 222.627 63.416 224.08 63.416H227.016ZM240.287 48V75H235.225V48H240.287ZM239.566 64.8223H238.178C238.189 63.498 238.365 62.2793 238.705 61.166C239.045 60.041 239.531 59.0684 240.164 58.248C240.797 57.416 241.553 56.7715 242.432 56.3145C243.322 55.8574 244.307 55.6289 245.385 55.6289C246.322 55.6289 247.172 55.7637 247.934 56.0332C248.707 56.291 249.369 56.7129 249.92 57.2988C250.482 57.873 250.916 58.6289 251.221 59.5664C251.525 60.5039 251.678 61.6406 251.678 62.9766V75H246.58V62.9414C246.58 62.0977 246.457 61.4355 246.211 60.9551C245.977 60.4629 245.631 60.1172 245.174 59.918C244.729 59.707 244.178 59.6016 243.521 59.6016C242.795 59.6016 242.174 59.7363 241.658 60.0059C241.154 60.2754 240.75 60.6504 240.445 61.1309C240.141 61.5996 239.918 62.1504 239.777 62.7832C239.637 63.416 239.566 64.0957 239.566 64.8223ZM270.082 49.4062V75H264.809V49.4062H270.082ZM280.277 60.3398V64.4531H268.641V60.3398H280.277ZM281.508 49.4062V53.5371H268.641V49.4062H281.508ZM293.918 70.7109V62.2383C293.918 61.6289 293.818 61.1074 293.619 60.6738C293.42 60.2285 293.109 59.8828 292.688 59.6367C292.277 59.3906 291.744 59.2676 291.088 59.2676C290.525 59.2676 290.039 59.3672 289.629 59.5664C289.219 59.7539 288.902 60.0293 288.68 60.3926C288.457 60.7441 288.346 61.1602 288.346 61.6406H283.283C283.283 60.832 283.471 60.0645 283.846 59.3379C284.221 58.6113 284.766 57.9727 285.48 57.4219C286.195 56.8594 287.045 56.4199 288.029 56.1035C289.025 55.7871 290.139 55.6289 291.369 55.6289C292.846 55.6289 294.158 55.875 295.307 56.3672C296.455 56.8594 297.357 57.5977 298.014 58.582C298.682 59.5664 299.016 60.7969 299.016 62.2734V70.4121C299.016 71.4551 299.08 72.3105 299.209 72.9785C299.338 73.6348 299.525 74.209 299.771 74.7012V75H294.656C294.41 74.4844 294.223 73.8398 294.094 73.0664C293.977 72.2812 293.918 71.4961 293.918 70.7109ZM294.586 63.416L294.621 66.2812H291.791C291.123 66.2812 290.543 66.3574 290.051 66.5098C289.559 66.6621 289.154 66.8789 288.838 67.1602C288.521 67.4297 288.287 67.7461 288.135 68.1094C287.994 68.4727 287.924 68.8711 287.924 69.3047C287.924 69.7383 288.023 70.1309 288.223 70.4824C288.422 70.8223 288.709 71.0918 289.084 71.291C289.459 71.4785 289.898 71.5723 290.402 71.5723C291.164 71.5723 291.826 71.4199 292.389 71.1152C292.951 70.8105 293.385 70.4355 293.689 69.9902C294.006 69.5449 294.17 69.123 294.182 68.7246L295.518 70.8691C295.33 71.3496 295.072 71.8477 294.744 72.3633C294.428 72.8789 294.023 73.3652 293.531 73.8223C293.039 74.2676 292.447 74.6367 291.756 74.9297C291.064 75.2109 290.244 75.3516 289.295 75.3516C288.088 75.3516 286.992 75.1113 286.008 74.6309C285.035 74.1387 284.262 73.4648 283.688 72.6094C283.125 71.7422 282.844 70.7578 282.844 69.6562C282.844 68.6602 283.031 67.7754 283.406 67.002C283.781 66.2285 284.332 65.5781 285.059 65.0508C285.797 64.5117 286.717 64.1074 287.818 63.8379C288.92 63.5566 290.197 63.416 291.65 63.416H294.586ZM307.98 60.1289V75H302.918V55.9805H307.682L307.98 60.1289ZM313.711 55.8574L313.623 60.5508C313.377 60.5156 313.078 60.4863 312.727 60.4629C312.387 60.4277 312.076 60.4102 311.795 60.4102C311.08 60.4102 310.459 60.5039 309.932 60.6914C309.416 60.8672 308.982 61.1309 308.631 61.4824C308.291 61.834 308.033 62.2617 307.857 62.7656C307.693 63.2695 307.6 63.8438 307.576 64.4883L306.557 64.1719C306.557 62.9414 306.68 61.8105 306.926 60.7793C307.172 59.7363 307.529 58.8281 307.998 58.0547C308.479 57.2812 309.064 56.6836 309.756 56.2617C310.447 55.8398 311.238 55.6289 312.129 55.6289C312.41 55.6289 312.697 55.6523 312.99 55.6992C313.283 55.7344 313.523 55.7871 313.711 55.8574ZM321.164 60.1289V75H316.102V55.9805H320.865L321.164 60.1289ZM326.895 55.8574L326.807 60.5508C326.561 60.5156 326.262 60.4863 325.91 60.4629C325.57 60.4277 325.26 60.4102 324.979 60.4102C324.264 60.4102 323.643 60.5039 323.115 60.6914C322.6 60.8672 322.166 61.1309 321.814 61.4824C321.475 61.834 321.217 62.2617 321.041 62.7656C320.877 63.2695 320.783 63.8438 320.76 64.4883L319.74 64.1719C319.74 62.9414 319.863 61.8105 320.109 60.7793C320.355 59.7363 320.713 58.8281 321.182 58.0547C321.662 57.2812 322.248 56.6836 322.939 56.2617C323.631 55.8398 324.422 55.6289 325.312 55.6289C325.594 55.6289 325.881 55.6523 326.174 55.6992C326.467 55.7344 326.707 55.7871 326.895 55.8574ZM338.953 70.7109V62.2383C338.953 61.6289 338.854 61.1074 338.654 60.6738C338.455 60.2285 338.145 59.8828 337.723 59.6367C337.312 59.3906 336.779 59.2676 336.123 59.2676C335.561 59.2676 335.074 59.3672 334.664 59.5664C334.254 59.7539 333.938 60.0293 333.715 60.3926C333.492 60.7441 333.381 61.1602 333.381 61.6406H328.318C328.318 60.832 328.506 60.0645 328.881 59.3379C329.256 58.6113 329.801 57.9727 330.516 57.4219C331.23 56.8594 332.08 56.4199 333.064 56.1035C334.061 55.7871 335.174 55.6289 336.404 55.6289C337.881 55.6289 339.193 55.875 340.342 56.3672C341.49 56.8594 342.393 57.5977 343.049 58.582C343.717 59.5664 344.051 60.7969 344.051 62.2734V70.4121C344.051 71.4551 344.115 72.3105 344.244 72.9785C344.373 73.6348 344.561 74.209 344.807 74.7012V75H339.691C339.445 74.4844 339.258 73.8398 339.129 73.0664C339.012 72.2812 338.953 71.4961 338.953 70.7109ZM339.621 63.416L339.656 66.2812H336.826C336.158 66.2812 335.578 66.3574 335.086 66.5098C334.594 66.6621 334.189 66.8789 333.873 67.1602C333.557 67.4297 333.322 67.7461 333.17 68.1094C333.029 68.4727 332.959 68.8711 332.959 69.3047C332.959 69.7383 333.059 70.1309 333.258 70.4824C333.457 70.8223 333.744 71.0918 334.119 71.291C334.494 71.4785 334.934 71.5723 335.438 71.5723C336.199 71.5723 336.861 71.4199 337.424 71.1152C337.986 70.8105 338.42 70.4355 338.725 69.9902C339.041 69.5449 339.205 69.123 339.217 68.7246L340.553 70.8691C340.365 71.3496 340.107 71.8477 339.779 72.3633C339.463 72.8789 339.059 73.3652 338.566 73.8223C338.074 74.2676 337.482 74.6367 336.791 74.9297C336.1 75.2109 335.279 75.3516 334.33 75.3516C333.123 75.3516 332.027 75.1113 331.043 74.6309C330.07 74.1387 329.297 73.4648 328.723 72.6094C328.16 71.7422 327.879 70.7578 327.879 69.6562C327.879 68.6602 328.066 67.7754 328.441 67.002C328.816 66.2285 329.367 65.5781 330.094 65.0508C330.832 64.5117 331.752 64.1074 332.854 63.8379C333.955 63.5566 335.232 63.416 336.686 63.416H339.621ZM352.91 60.041V75H347.848V55.9805H352.594L352.91 60.041ZM352.172 64.8223H350.801C350.801 63.416 350.982 62.1504 351.346 61.0254C351.709 59.8887 352.219 58.9219 352.875 58.125C353.531 57.3164 354.311 56.7012 355.213 56.2793C356.127 55.8457 357.146 55.6289 358.271 55.6289C359.162 55.6289 359.977 55.7578 360.715 56.0156C361.453 56.2734 362.086 56.6836 362.613 57.2461C363.152 57.8086 363.562 58.5527 363.844 59.4785C364.137 60.4043 364.283 61.5352 364.283 62.8711V75H359.186V62.8535C359.186 62.0098 359.068 61.3535 358.834 60.8848C358.6 60.416 358.254 60.0879 357.797 59.9004C357.352 59.7012 356.801 59.6016 356.145 59.6016C355.465 59.6016 354.873 59.7363 354.369 60.0059C353.877 60.2754 353.467 60.6504 353.139 61.1309C352.822 61.5996 352.582 62.1504 352.418 62.7832C352.254 63.416 352.172 64.0957 352.172 64.8223Z" fill="#888888"/>
<path d="M112.906 108.555L103.199 140H92.8906L107.52 100.188H114.055L112.906 108.555ZM120.945 140L111.211 108.555L109.953 100.188H116.57L131.281 140H120.945ZM120.562 125.152V132.562H100.137V125.152H120.562ZM134.207 100.188H149.875C152.938 100.188 155.599 100.643 157.859 101.555C160.12 102.466 161.861 103.815 163.082 105.602C164.322 107.388 164.941 109.594 164.941 112.219C164.941 114.497 164.586 116.402 163.875 117.934C163.164 119.465 162.171 120.732 160.895 121.734C159.637 122.719 158.169 123.53 156.492 124.168L153.348 125.945H140.195L140.141 118.535H149.875C151.096 118.535 152.108 118.316 152.91 117.879C153.712 117.441 154.314 116.822 154.715 116.02C155.134 115.199 155.344 114.224 155.344 113.094C155.344 111.945 155.134 110.961 154.715 110.141C154.296 109.32 153.676 108.691 152.855 108.254C152.053 107.816 151.06 107.598 149.875 107.598H143.805V140H134.207V100.188ZM156 140L147.195 122.391L157.367 122.336L166.281 139.59V140H156ZM188.648 100.188V140H179.051V100.188H188.648ZM200.625 100.188V107.598H167.348V100.188H200.625ZM214.898 100.188V140H205.328V100.188H214.898ZM244.293 126.52H253.863C253.736 129.29 252.988 131.733 251.621 133.848C250.254 135.962 248.358 137.612 245.934 138.797C243.527 139.964 240.684 140.547 237.402 140.547C234.741 140.547 232.362 140.1 230.266 139.207C228.188 138.314 226.419 137.029 224.961 135.352C223.521 133.674 222.418 131.642 221.652 129.254C220.905 126.866 220.531 124.177 220.531 121.188V119.027C220.531 116.038 220.923 113.349 221.707 110.961C222.509 108.555 223.639 106.513 225.098 104.836C226.574 103.141 228.342 101.846 230.402 100.953C232.462 100.06 234.75 99.6133 237.266 99.6133C240.729 99.6133 243.655 100.233 246.043 101.473C248.431 102.712 250.281 104.417 251.594 106.586C252.906 108.737 253.681 111.189 253.918 113.941H244.348C244.311 112.447 244.056 111.198 243.582 110.195C243.108 109.174 242.361 108.409 241.34 107.898C240.319 107.388 238.961 107.133 237.266 107.133C236.081 107.133 235.051 107.352 234.176 107.789C233.301 108.227 232.572 108.919 231.988 109.867C231.405 110.815 230.967 112.046 230.676 113.559C230.402 115.053 230.266 116.858 230.266 118.973V121.188C230.266 123.302 230.393 125.107 230.648 126.602C230.904 128.096 231.314 129.318 231.879 130.266C232.444 131.214 233.173 131.915 234.066 132.371C234.978 132.809 236.09 133.027 237.402 133.027C238.861 133.027 240.091 132.799 241.094 132.344C242.096 131.87 242.871 131.159 243.418 130.211C243.965 129.245 244.257 128.014 244.293 126.52ZM275.273 108.555L265.566 140H255.258L269.887 100.188H276.422L275.273 108.555ZM283.312 140L273.578 108.555L272.32 100.188H278.938L293.648 140H283.312ZM282.93 125.152V132.562H262.504V125.152H282.93Z" fill="black"/>
<rect x="93" y="178" width="917" height="77" rx="10" fill="#D3D3D3"/>
<rect x="111" y="196" width="148" height="41" rx="3" fill="#424242"/>
<rect x="111" y="196" width="148" height="41" rx="3" stroke="#424242" stroke-width="4"/>
<path d="M134.234 210.203H139.271C140.255 210.203 141.11 210.35 141.837 210.643C142.563 210.936 143.123 211.369 143.516 211.943C143.914 212.518 144.113 213.227 144.113 214.07C144.113 214.803 143.999 215.415 143.771 215.907C143.542 216.399 143.223 216.807 142.812 217.129C142.408 217.445 141.937 217.706 141.397 217.911L140.387 218.482H136.159L136.142 216.101H139.271C139.663 216.101 139.988 216.03 140.246 215.89C140.504 215.749 140.697 215.55 140.826 215.292C140.961 215.028 141.028 214.715 141.028 214.352C141.028 213.982 140.961 213.666 140.826 213.402C140.691 213.139 140.492 212.937 140.229 212.796C139.971 212.655 139.651 212.585 139.271 212.585H137.319V223H134.234V210.203ZM141.239 223L138.409 217.34L141.679 217.322L144.544 222.868V223H141.239ZM150.441 223.176C149.668 223.176 148.977 223.056 148.367 222.815C147.758 222.569 147.242 222.232 146.82 221.805C146.404 221.377 146.085 220.885 145.862 220.328C145.646 219.771 145.537 219.183 145.537 218.562V218.228C145.537 217.53 145.634 216.886 145.827 216.294C146.021 215.696 146.308 215.175 146.688 214.729C147.069 214.284 147.547 213.938 148.121 213.692C148.695 213.44 149.363 213.314 150.125 213.314C150.799 213.314 151.402 213.423 151.936 213.64C152.469 213.856 152.92 214.167 153.289 214.571C153.664 214.976 153.948 215.465 154.142 216.039C154.341 216.613 154.44 217.258 154.44 217.973V219.177H146.671V217.322H151.549V217.094C151.555 216.777 151.499 216.508 151.382 216.285C151.271 216.062 151.106 215.893 150.89 215.775C150.673 215.658 150.409 215.6 150.099 215.6C149.776 215.6 149.51 215.67 149.299 215.811C149.094 215.951 148.933 216.145 148.815 216.391C148.704 216.631 148.625 216.909 148.578 217.226C148.531 217.542 148.508 217.876 148.508 218.228V218.562C148.508 218.913 148.555 219.232 148.648 219.52C148.748 219.807 148.889 220.053 149.07 220.258C149.258 220.457 149.48 220.612 149.738 220.724C150.002 220.835 150.301 220.891 150.635 220.891C151.039 220.891 151.438 220.814 151.83 220.662C152.223 220.51 152.56 220.258 152.841 219.906L154.186 221.506C153.992 221.781 153.717 222.048 153.359 222.306C153.008 222.563 152.586 222.774 152.094 222.938C151.602 223.097 151.051 223.176 150.441 223.176ZM160.584 220.609V216.689C160.584 216.42 160.546 216.188 160.47 215.995C160.394 215.802 160.273 215.652 160.109 215.547C159.945 215.436 159.726 215.38 159.45 215.38C159.228 215.38 159.037 215.418 158.879 215.494C158.721 215.57 158.601 215.685 158.519 215.837C158.437 215.989 158.396 216.183 158.396 216.417H155.434C155.434 215.978 155.53 215.57 155.724 215.195C155.923 214.814 156.204 214.483 156.567 214.202C156.937 213.921 157.376 213.704 157.886 213.552C158.401 213.394 158.976 213.314 159.608 213.314C160.364 213.314 161.038 213.44 161.63 213.692C162.228 213.944 162.699 214.322 163.045 214.826C163.391 215.324 163.563 215.951 163.563 216.707V220.601C163.563 221.222 163.599 221.693 163.669 222.016C163.739 222.332 163.839 222.61 163.968 222.851V223H160.997C160.856 222.707 160.751 222.35 160.681 221.928C160.616 221.5 160.584 221.061 160.584 220.609ZM160.944 217.19L160.962 218.772H159.652C159.377 218.772 159.143 218.811 158.949 218.887C158.762 218.963 158.609 219.068 158.492 219.203C158.381 219.332 158.299 219.479 158.246 219.643C158.199 219.807 158.176 219.979 158.176 220.161C158.176 220.337 158.217 220.495 158.299 220.636C158.387 220.771 158.504 220.876 158.65 220.952C158.797 221.028 158.961 221.066 159.143 221.066C159.471 221.066 159.749 221.005 159.978 220.882C160.212 220.753 160.391 220.598 160.514 220.416C160.637 220.234 160.698 220.064 160.698 219.906L161.349 221.119C161.231 221.354 161.097 221.591 160.944 221.831C160.798 222.071 160.613 222.294 160.391 222.499C160.174 222.698 159.907 222.862 159.591 222.991C159.274 223.114 158.891 223.176 158.439 223.176C157.854 223.176 157.314 223.056 156.822 222.815C156.336 222.575 155.946 222.241 155.653 221.813C155.36 221.38 155.214 220.882 155.214 220.319C155.214 219.827 155.302 219.388 155.478 219.001C155.659 218.614 155.932 218.286 156.295 218.017C156.658 217.747 157.121 217.542 157.684 217.401C158.246 217.261 158.908 217.19 159.67 217.19H160.944ZM169.224 220.891C169.499 220.891 169.733 220.841 169.927 220.741C170.126 220.636 170.275 220.489 170.375 220.302C170.48 220.108 170.53 219.877 170.524 219.607H173.311C173.316 220.322 173.141 220.949 172.783 221.488C172.432 222.021 171.951 222.438 171.342 222.736C170.738 223.029 170.056 223.176 169.294 223.176C168.55 223.176 167.899 223.056 167.343 222.815C166.786 222.569 166.32 222.229 165.945 221.796C165.576 221.356 165.298 220.844 165.11 220.258C164.929 219.672 164.838 219.036 164.838 218.351V218.148C164.838 217.463 164.929 216.827 165.11 216.241C165.298 215.649 165.576 215.137 165.945 214.703C166.32 214.264 166.783 213.924 167.334 213.684C167.891 213.438 168.538 213.314 169.276 213.314C170.067 213.314 170.765 213.464 171.368 213.763C171.978 214.062 172.455 214.495 172.801 215.063C173.146 215.632 173.316 216.32 173.311 217.129H170.524C170.53 216.842 170.486 216.584 170.393 216.355C170.299 216.127 170.152 215.945 169.953 215.811C169.76 215.67 169.511 215.6 169.206 215.6C168.901 215.6 168.655 215.667 168.468 215.802C168.28 215.937 168.137 216.124 168.037 216.364C167.943 216.599 167.879 216.868 167.844 217.173C167.814 217.478 167.8 217.803 167.8 218.148V218.351C167.8 218.702 167.814 219.033 167.844 219.344C167.879 219.648 167.946 219.918 168.046 220.152C168.146 220.381 168.289 220.562 168.477 220.697C168.664 220.826 168.913 220.891 169.224 220.891ZM179.586 213.49V215.547H173.855V213.49H179.586ZM175.06 211.126H178.021V219.897C178.021 220.149 178.051 220.346 178.109 220.486C178.168 220.621 178.268 220.718 178.408 220.776C178.555 220.829 178.748 220.855 178.988 220.855C179.158 220.855 179.299 220.853 179.41 220.847C179.521 220.835 179.627 220.82 179.727 220.803V222.921C179.475 223.003 179.211 223.064 178.936 223.105C178.66 223.152 178.367 223.176 178.057 223.176C177.424 223.176 176.882 223.076 176.431 222.877C175.985 222.678 175.646 222.364 175.411 221.937C175.177 221.509 175.06 220.952 175.06 220.267V211.126ZM196.074 210.203V223H192.998L188.472 215.037V223H185.387V210.203H188.472L192.998 218.166V210.203H196.074ZM202.824 220.609V216.689C202.824 216.42 202.786 216.188 202.71 215.995C202.634 215.802 202.514 215.652 202.35 215.547C202.186 215.436 201.966 215.38 201.69 215.38C201.468 215.38 201.277 215.418 201.119 215.494C200.961 215.57 200.841 215.685 200.759 215.837C200.677 215.989 200.636 216.183 200.636 216.417H197.674C197.674 215.978 197.771 215.57 197.964 215.195C198.163 214.814 198.444 214.483 198.808 214.202C199.177 213.921 199.616 213.704 200.126 213.552C200.642 213.394 201.216 213.314 201.849 213.314C202.604 213.314 203.278 213.44 203.87 213.692C204.468 213.944 204.939 214.322 205.285 214.826C205.631 215.324 205.804 215.951 205.804 216.707V220.601C205.804 221.222 205.839 221.693 205.909 222.016C205.979 222.332 206.079 222.61 206.208 222.851V223H203.237C203.097 222.707 202.991 222.35 202.921 221.928C202.856 221.5 202.824 221.061 202.824 220.609ZM203.185 217.19L203.202 218.772H201.893C201.617 218.772 201.383 218.811 201.189 218.887C201.002 218.963 200.85 219.068 200.732 219.203C200.621 219.332 200.539 219.479 200.486 219.643C200.439 219.807 200.416 219.979 200.416 220.161C200.416 220.337 200.457 220.495 200.539 220.636C200.627 220.771 200.744 220.876 200.891 220.952C201.037 221.028 201.201 221.066 201.383 221.066C201.711 221.066 201.989 221.005 202.218 220.882C202.452 220.753 202.631 220.598 202.754 220.416C202.877 220.234 202.938 220.064 202.938 219.906L203.589 221.119C203.472 221.354 203.337 221.591 203.185 221.831C203.038 222.071 202.854 222.294 202.631 222.499C202.414 222.698 202.147 222.862 201.831 222.991C201.515 223.114 201.131 223.176 200.68 223.176C200.094 223.176 199.555 223.056 199.062 222.815C198.576 222.575 198.187 222.241 197.894 221.813C197.601 221.38 197.454 220.882 197.454 220.319C197.454 219.827 197.542 219.388 197.718 219.001C197.899 218.614 198.172 218.286 198.535 218.017C198.898 217.747 199.361 217.542 199.924 217.401C200.486 217.261 201.148 217.19 201.91 217.19H203.185ZM212.457 213.49V215.547H206.727V213.49H212.457ZM207.931 211.126H210.893V219.897C210.893 220.149 210.922 220.346 210.98 220.486C211.039 220.621 211.139 220.718 211.279 220.776C211.426 220.829 211.619 220.855 211.859 220.855C212.029 220.855 212.17 220.853 212.281 220.847C212.393 220.835 212.498 220.82 212.598 220.803V222.921C212.346 223.003 212.082 223.064 211.807 223.105C211.531 223.152 211.238 223.176 210.928 223.176C210.295 223.176 209.753 223.076 209.302 222.877C208.856 222.678 208.517 222.364 208.282 221.937C208.048 221.509 207.931 220.952 207.931 220.267V211.126ZM216.764 213.49V223H213.793V213.49H216.764ZM213.617 211.038C213.617 210.616 213.77 210.271 214.074 210.001C214.379 209.731 214.774 209.597 215.261 209.597C215.747 209.597 216.143 209.731 216.447 210.001C216.752 210.271 216.904 210.616 216.904 211.038C216.904 211.46 216.752 211.806 216.447 212.075C216.143 212.345 215.747 212.479 215.261 212.479C214.774 212.479 214.379 212.345 214.074 212.075C213.77 211.806 213.617 211.46 213.617 211.038ZM222.02 220.97L223.892 213.49H227.012L223.9 223H222.055L222.02 220.97ZM220.912 213.49L222.758 220.97L222.74 223H220.886L217.783 213.49H220.912ZM232.373 223.176C231.6 223.176 230.908 223.056 230.299 222.815C229.689 222.569 229.174 222.232 228.752 221.805C228.336 221.377 228.017 220.885 227.794 220.328C227.577 219.771 227.469 219.183 227.469 218.562V218.228C227.469 217.53 227.565 216.886 227.759 216.294C227.952 215.696 228.239 215.175 228.62 214.729C229.001 214.284 229.479 213.938 230.053 213.692C230.627 213.44 231.295 213.314 232.057 213.314C232.73 213.314 233.334 213.423 233.867 213.64C234.4 213.856 234.852 214.167 235.221 214.571C235.596 214.976 235.88 215.465 236.073 216.039C236.272 216.613 236.372 217.258 236.372 217.973V219.177H228.603V217.322H233.48V217.094C233.486 216.777 233.431 216.508 233.313 216.285C233.202 216.062 233.038 215.893 232.821 215.775C232.604 215.658 232.341 215.6 232.03 215.6C231.708 215.6 231.441 215.67 231.23 215.811C231.025 215.951 230.864 216.145 230.747 216.391C230.636 216.631 230.557 216.909 230.51 217.226C230.463 217.542 230.439 217.876 230.439 218.228V218.562C230.439 218.913 230.486 219.232 230.58 219.52C230.68 219.807 230.82 220.053 231.002 220.258C231.189 220.457 231.412 220.612 231.67 220.724C231.934 220.835 232.232 220.891 232.566 220.891C232.971 220.891 233.369 220.814 233.762 220.662C234.154 220.51 234.491 220.258 234.772 219.906L236.117 221.506C235.924 221.781 235.648 222.048 235.291 222.306C234.939 222.563 234.518 222.774 234.025 222.938C233.533 223.097 232.982 223.176 232.373 223.176Z" fill="white"/>
<rect x="279" y="196" width="112" height="41" rx="3" fill="#424242"/>
<rect x="279" y="196" width="112" height="41" rx="3" stroke="#424242" stroke-width="4"/>
<path d="M308.51 210.203V223H305.425V210.203H308.51ZM312.359 210.203V212.585H301.663V210.203H312.359ZM316.429 209.5V223H313.467V209.5H316.429ZM316.077 217.92L315.383 217.938C315.383 217.27 315.465 216.654 315.629 216.092C315.793 215.529 316.027 215.04 316.332 214.624C316.637 214.208 317.003 213.886 317.431 213.657C317.858 213.429 318.333 213.314 318.854 213.314C319.323 213.314 319.751 213.382 320.138 213.517C320.53 213.651 320.867 213.868 321.148 214.167C321.436 214.466 321.655 214.855 321.808 215.336C321.966 215.816 322.045 216.402 322.045 217.094V223H319.065V217.076C319.065 216.689 319.01 216.391 318.898 216.18C318.793 215.963 318.641 215.813 318.441 215.731C318.242 215.644 317.999 215.6 317.712 215.6C317.366 215.6 317.085 215.658 316.868 215.775C316.651 215.893 316.484 216.057 316.367 216.268C316.256 216.473 316.18 216.716 316.139 216.997C316.098 217.278 316.077 217.586 316.077 217.92ZM326.677 215.846V223H323.715V213.49H326.483L326.677 215.846ZM329.489 213.42L329.437 216.171C329.319 216.159 329.161 216.145 328.962 216.127C328.763 216.109 328.596 216.101 328.461 216.101C328.115 216.101 327.816 216.142 327.564 216.224C327.318 216.3 327.113 216.417 326.949 216.575C326.791 216.728 326.674 216.921 326.598 217.155C326.527 217.39 326.495 217.662 326.501 217.973L325.965 217.621C325.965 216.982 326.026 216.402 326.149 215.881C326.278 215.354 326.46 214.899 326.694 214.519C326.929 214.132 327.213 213.836 327.547 213.631C327.881 213.42 328.256 213.314 328.672 213.314C328.818 213.314 328.962 213.323 329.103 213.341C329.249 213.358 329.378 213.385 329.489 213.42ZM334.938 223.176C334.165 223.176 333.474 223.056 332.864 222.815C332.255 222.569 331.739 222.232 331.317 221.805C330.901 221.377 330.582 220.885 330.359 220.328C330.143 219.771 330.034 219.183 330.034 218.562V218.228C330.034 217.53 330.131 216.886 330.324 216.294C330.518 215.696 330.805 215.175 331.186 214.729C331.566 214.284 332.044 213.938 332.618 213.692C333.192 213.44 333.86 213.314 334.622 213.314C335.296 213.314 335.899 213.423 336.433 213.64C336.966 213.856 337.417 214.167 337.786 214.571C338.161 214.976 338.445 215.465 338.639 216.039C338.838 216.613 338.938 217.258 338.938 217.973V219.177H331.168V217.322H336.046V217.094C336.052 216.777 335.996 216.508 335.879 216.285C335.768 216.062 335.604 215.893 335.387 215.775C335.17 215.658 334.906 215.6 334.596 215.6C334.273 215.6 334.007 215.67 333.796 215.811C333.591 215.951 333.43 216.145 333.312 216.391C333.201 216.631 333.122 216.909 333.075 217.226C333.028 217.542 333.005 217.876 333.005 218.228V218.562C333.005 218.913 333.052 219.232 333.146 219.52C333.245 219.807 333.386 220.053 333.567 220.258C333.755 220.457 333.978 220.612 334.235 220.724C334.499 220.835 334.798 220.891 335.132 220.891C335.536 220.891 335.935 220.814 336.327 220.662C336.72 220.51 337.057 220.258 337.338 219.906L338.683 221.506C338.489 221.781 338.214 222.048 337.856 222.306C337.505 222.563 337.083 222.774 336.591 222.938C336.099 223.097 335.548 223.176 334.938 223.176ZM344.747 223.176C343.974 223.176 343.282 223.056 342.673 222.815C342.063 222.569 341.548 222.232 341.126 221.805C340.71 221.377 340.391 220.885 340.168 220.328C339.951 219.771 339.843 219.183 339.843 218.562V218.228C339.843 217.53 339.939 216.886 340.133 216.294C340.326 215.696 340.613 215.175 340.994 214.729C341.375 214.284 341.853 213.938 342.427 213.692C343.001 213.44 343.669 213.314 344.431 213.314C345.104 213.314 345.708 213.423 346.241 213.64C346.774 213.856 347.226 214.167 347.595 214.571C347.97 214.976 348.254 215.465 348.447 216.039C348.646 216.613 348.746 217.258 348.746 217.973V219.177H340.977V217.322H345.854V217.094C345.86 216.777 345.805 216.508 345.688 216.285C345.576 216.062 345.412 215.893 345.195 215.775C344.979 215.658 344.715 215.6 344.404 215.6C344.082 215.6 343.815 215.67 343.604 215.811C343.399 215.951 343.238 216.145 343.121 216.391C343.01 216.631 342.931 216.909 342.884 217.226C342.837 217.542 342.813 217.876 342.813 218.228V218.562C342.813 218.913 342.86 219.232 342.954 219.52C343.054 219.807 343.194 220.053 343.376 220.258C343.563 220.457 343.786 220.612 344.044 220.724C344.308 220.835 344.606 220.891 344.94 220.891C345.345 220.891 345.743 220.814 346.136 220.662C346.528 220.51 346.865 220.258 347.146 219.906L348.491 221.506C348.298 221.781 348.022 222.048 347.665 222.306C347.313 222.563 346.892 222.774 346.399 222.938C345.907 223.097 345.356 223.176 344.747 223.176ZM350.144 221.611C350.144 221.189 350.296 220.838 350.601 220.557C350.905 220.27 351.298 220.126 351.778 220.126C352.265 220.126 352.657 220.27 352.956 220.557C353.261 220.838 353.413 221.189 353.413 221.611C353.413 222.033 353.261 222.388 352.956 222.675C352.657 222.956 352.265 223.097 351.778 223.097C351.298 223.097 350.905 222.956 350.601 222.675C350.296 222.388 350.144 222.033 350.144 221.611ZM355.619 213.49H358.59V223.308C358.59 224.069 358.443 224.711 358.15 225.232C357.857 225.76 357.438 226.158 356.894 226.428C356.349 226.703 355.698 226.841 354.942 226.841C354.69 226.841 354.459 226.829 354.248 226.806C354.031 226.788 353.794 226.75 353.536 226.691V224.45C353.688 224.474 353.829 224.491 353.958 224.503C354.087 224.521 354.228 224.529 354.38 224.529C354.649 224.529 354.875 224.485 355.057 224.397C355.238 224.31 355.376 224.175 355.47 223.993C355.569 223.812 355.619 223.583 355.619 223.308V213.49ZM355.399 211.038C355.399 210.616 355.552 210.271 355.856 210.001C356.161 209.731 356.557 209.597 357.043 209.597C357.529 209.597 357.925 209.731 358.229 210.001C358.534 210.271 358.687 210.616 358.687 211.038C358.687 211.46 358.534 211.806 358.229 212.075C357.925 212.345 357.529 212.479 357.043 212.479C356.557 212.479 356.161 212.345 355.856 212.075C355.552 211.806 355.399 211.46 355.399 211.038ZM365.252 220.328C365.252 220.164 365.196 220.023 365.085 219.906C364.979 219.783 364.792 219.672 364.522 219.572C364.253 219.467 363.875 219.361 363.389 219.256C362.926 219.156 362.489 219.024 362.079 218.86C361.675 218.696 361.32 218.497 361.016 218.263C360.711 218.028 360.471 217.75 360.295 217.428C360.125 217.105 360.04 216.736 360.04 216.32C360.04 215.916 360.125 215.535 360.295 215.178C360.471 214.814 360.726 214.495 361.06 214.22C361.399 213.938 361.812 213.719 362.299 213.561C362.785 213.396 363.339 213.314 363.96 213.314C364.815 213.314 365.554 213.446 366.175 213.71C366.796 213.968 367.273 214.331 367.607 214.8C367.947 215.263 368.117 215.799 368.117 216.408H365.155C365.155 216.168 365.114 215.963 365.032 215.793C364.956 215.623 364.83 215.494 364.654 215.406C364.479 215.312 364.244 215.266 363.951 215.266C363.746 215.266 363.559 215.304 363.389 215.38C363.225 215.456 363.093 215.562 362.993 215.696C362.894 215.831 362.844 215.989 362.844 216.171C362.844 216.3 362.873 216.417 362.932 216.522C362.996 216.622 363.093 216.716 363.222 216.804C363.351 216.886 363.515 216.962 363.714 217.032C363.913 217.097 364.153 217.155 364.435 217.208C365.073 217.325 365.671 217.492 366.228 217.709C366.784 217.926 367.235 218.233 367.581 218.632C367.933 219.03 368.108 219.566 368.108 220.24C368.108 220.662 368.012 221.052 367.818 221.409C367.625 221.761 367.347 222.071 366.983 222.341C366.62 222.604 366.184 222.81 365.674 222.956C365.164 223.103 364.59 223.176 363.951 223.176C363.043 223.176 362.275 223.015 361.648 222.692C361.021 222.364 360.547 221.954 360.225 221.462C359.908 220.964 359.75 220.46 359.75 219.95H362.51C362.521 220.243 362.592 220.483 362.721 220.671C362.855 220.858 363.034 220.996 363.257 221.084C363.479 221.172 363.737 221.216 364.03 221.216C364.3 221.216 364.522 221.178 364.698 221.102C364.88 221.025 365.018 220.923 365.111 220.794C365.205 220.659 365.252 220.504 365.252 220.328Z" fill="white"/>
<rect x="411" y="196" width="131" height="41" rx="3" fill="#424242"/>
<rect x="411" y="196" width="131" height="41" rx="3" stroke="#424242" stroke-width="4"/>
<path d="M440.359 210.203V223H437.274V210.203H440.359ZM444.209 210.203V212.585H433.513V210.203H444.209ZM447.575 221.884L450.036 213.49H453.218L449.395 224.415C449.312 224.655 449.204 224.913 449.069 225.188C448.935 225.47 448.75 225.736 448.516 225.988C448.281 226.24 447.979 226.445 447.61 226.604C447.247 226.762 446.796 226.841 446.257 226.841C445.97 226.841 445.759 226.826 445.624 226.797C445.495 226.773 445.296 226.729 445.026 226.665V224.547C445.103 224.547 445.167 224.547 445.22 224.547C445.278 224.547 445.343 224.547 445.413 224.547C445.729 224.547 445.981 224.515 446.169 224.45C446.362 224.386 446.509 224.292 446.608 224.169C446.714 224.046 446.796 223.896 446.854 223.721L447.575 221.884ZM446.951 213.49L448.823 220.144L449.148 223.281H447.162L443.778 213.49H446.951ZM456.979 215.318V226.656H454.018V213.49H456.777L456.979 215.318ZM462.815 218.131V218.315C462.815 219.007 462.736 219.648 462.578 220.24C462.42 220.832 462.186 221.348 461.875 221.787C461.564 222.227 461.178 222.569 460.715 222.815C460.258 223.056 459.728 223.176 459.124 223.176C458.556 223.176 458.066 223.05 457.656 222.798C457.246 222.546 456.903 222.197 456.628 221.752C456.353 221.307 456.13 220.797 455.96 220.223C455.79 219.648 455.655 219.042 455.556 218.403V218.166C455.655 217.48 455.79 216.845 455.96 216.259C456.13 215.667 456.353 215.151 456.628 214.712C456.903 214.272 457.243 213.93 457.647 213.684C458.058 213.438 458.547 213.314 459.115 213.314C459.719 213.314 460.249 213.429 460.706 213.657C461.169 213.886 461.556 214.214 461.866 214.642C462.183 215.063 462.42 215.57 462.578 216.162C462.736 216.754 462.815 217.41 462.815 218.131ZM459.854 218.315V218.131C459.854 217.762 459.827 217.425 459.774 217.12C459.722 216.81 459.637 216.54 459.52 216.312C459.408 216.083 459.259 215.907 459.071 215.784C458.884 215.661 458.652 215.6 458.377 215.6C458.061 215.6 457.794 215.649 457.577 215.749C457.366 215.843 457.196 215.989 457.067 216.188C456.944 216.382 456.856 216.625 456.804 216.918C456.757 217.205 456.736 217.542 456.742 217.929V218.649C456.73 219.095 456.774 219.487 456.874 219.827C456.974 220.161 457.146 220.422 457.393 220.609C457.639 220.797 457.973 220.891 458.395 220.891C458.676 220.891 458.91 220.826 459.098 220.697C459.285 220.562 459.435 220.378 459.546 220.144C459.657 219.903 459.736 219.628 459.783 219.317C459.83 219.007 459.854 218.673 459.854 218.315ZM468.739 223.176C467.966 223.176 467.274 223.056 466.665 222.815C466.056 222.569 465.54 222.232 465.118 221.805C464.702 221.377 464.383 220.885 464.16 220.328C463.943 219.771 463.835 219.183 463.835 218.562V218.228C463.835 217.53 463.932 216.886 464.125 216.294C464.318 215.696 464.605 215.175 464.986 214.729C465.367 214.284 465.845 213.938 466.419 213.692C466.993 213.44 467.661 213.314 468.423 213.314C469.097 213.314 469.7 213.423 470.233 213.64C470.767 213.856 471.218 214.167 471.587 214.571C471.962 214.976 472.246 215.465 472.439 216.039C472.639 216.613 472.738 217.258 472.738 217.973V219.177H464.969V217.322H469.847V217.094C469.853 216.777 469.797 216.508 469.68 216.285C469.568 216.062 469.404 215.893 469.188 215.775C468.971 215.658 468.707 215.6 468.396 215.6C468.074 215.6 467.808 215.67 467.597 215.811C467.392 215.951 467.23 216.145 467.113 216.391C467.002 216.631 466.923 216.909 466.876 217.226C466.829 217.542 466.806 217.876 466.806 218.228V218.562C466.806 218.913 466.853 219.232 466.946 219.52C467.046 219.807 467.187 220.053 467.368 220.258C467.556 220.457 467.778 220.612 468.036 220.724C468.3 220.835 468.599 220.891 468.933 220.891C469.337 220.891 469.735 220.814 470.128 220.662C470.521 220.51 470.857 220.258 471.139 219.906L472.483 221.506C472.29 221.781 472.015 222.048 471.657 222.306C471.306 222.563 470.884 222.774 470.392 222.938C469.899 223.097 469.349 223.176 468.739 223.176ZM478.926 220.328C478.926 220.164 478.87 220.023 478.759 219.906C478.653 219.783 478.466 219.672 478.196 219.572C477.927 219.467 477.549 219.361 477.062 219.256C476.6 219.156 476.163 219.024 475.753 218.86C475.349 218.696 474.994 218.497 474.689 218.263C474.385 218.028 474.145 217.75 473.969 217.428C473.799 217.105 473.714 216.736 473.714 216.32C473.714 215.916 473.799 215.535 473.969 215.178C474.145 214.814 474.399 214.495 474.733 214.22C475.073 213.938 475.486 213.719 475.973 213.561C476.459 213.396 477.013 213.314 477.634 213.314C478.489 213.314 479.228 213.446 479.849 213.71C480.47 213.968 480.947 214.331 481.281 214.8C481.621 215.263 481.791 215.799 481.791 216.408H478.829C478.829 216.168 478.788 215.963 478.706 215.793C478.63 215.623 478.504 215.494 478.328 215.406C478.152 215.312 477.918 215.266 477.625 215.266C477.42 215.266 477.232 215.304 477.062 215.38C476.898 215.456 476.767 215.562 476.667 215.696C476.567 215.831 476.518 215.989 476.518 216.171C476.518 216.3 476.547 216.417 476.605 216.522C476.67 216.622 476.767 216.716 476.896 216.804C477.024 216.886 477.188 216.962 477.388 217.032C477.587 217.097 477.827 217.155 478.108 217.208C478.747 217.325 479.345 217.492 479.901 217.709C480.458 217.926 480.909 218.233 481.255 218.632C481.606 219.03 481.782 219.566 481.782 220.24C481.782 220.662 481.686 221.052 481.492 221.409C481.299 221.761 481.021 222.071 480.657 222.341C480.294 222.604 479.857 222.81 479.348 222.956C478.838 223.103 478.264 223.176 477.625 223.176C476.717 223.176 475.949 223.015 475.322 222.692C474.695 222.364 474.221 221.954 473.898 221.462C473.582 220.964 473.424 220.46 473.424 219.95H476.184C476.195 220.243 476.266 220.483 476.395 220.671C476.529 220.858 476.708 220.996 476.931 221.084C477.153 221.172 477.411 221.216 477.704 221.216C477.974 221.216 478.196 221.178 478.372 221.102C478.554 221.025 478.691 220.923 478.785 220.794C478.879 220.659 478.926 220.504 478.926 220.328ZM487.188 220.891C487.463 220.891 487.697 220.841 487.891 220.741C488.09 220.636 488.239 220.489 488.339 220.302C488.444 220.108 488.494 219.877 488.488 219.607H491.274C491.28 220.322 491.104 220.949 490.747 221.488C490.396 222.021 489.915 222.438 489.306 222.736C488.702 223.029 488.02 223.176 487.258 223.176C486.514 223.176 485.863 223.056 485.307 222.815C484.75 222.569 484.284 222.229 483.909 221.796C483.54 221.356 483.262 220.844 483.074 220.258C482.893 219.672 482.802 219.036 482.802 218.351V218.148C482.802 217.463 482.893 216.827 483.074 216.241C483.262 215.649 483.54 215.137 483.909 214.703C484.284 214.264 484.747 213.924 485.298 213.684C485.854 213.438 486.502 213.314 487.24 213.314C488.031 213.314 488.729 213.464 489.332 213.763C489.941 214.062 490.419 214.495 490.765 215.063C491.11 215.632 491.28 216.32 491.274 217.129H488.488C488.494 216.842 488.45 216.584 488.356 216.355C488.263 216.127 488.116 215.945 487.917 215.811C487.724 215.67 487.475 215.6 487.17 215.6C486.865 215.6 486.619 215.667 486.432 215.802C486.244 215.937 486.101 216.124 486.001 216.364C485.907 216.599 485.843 216.868 485.808 217.173C485.778 217.478 485.764 217.803 485.764 218.148V218.351C485.764 218.702 485.778 219.033 485.808 219.344C485.843 219.648 485.91 219.918 486.01 220.152C486.109 220.381 486.253 220.562 486.44 220.697C486.628 220.826 486.877 220.891 487.188 220.891ZM495.528 215.846V223H492.566V213.49H495.335L495.528 215.846ZM498.341 213.42L498.288 216.171C498.171 216.159 498.013 216.145 497.813 216.127C497.614 216.109 497.447 216.101 497.312 216.101C496.967 216.101 496.668 216.142 496.416 216.224C496.17 216.3 495.965 216.417 495.801 216.575C495.643 216.728 495.525 216.921 495.449 217.155C495.379 217.39 495.347 217.662 495.353 217.973L494.816 217.621C494.816 216.982 494.878 216.402 495.001 215.881C495.13 215.354 495.312 214.899 495.546 214.519C495.78 214.132 496.064 213.836 496.398 213.631C496.732 213.42 497.107 213.314 497.523 213.314C497.67 213.314 497.813 213.323 497.954 213.341C498.101 213.358 498.229 213.385 498.341 213.42ZM502.489 213.49V223H499.519V213.49H502.489ZM499.343 211.038C499.343 210.616 499.495 210.271 499.8 210.001C500.104 209.731 500.5 209.597 500.986 209.597C501.473 209.597 501.868 209.731 502.173 210.001C502.478 210.271 502.63 210.616 502.63 211.038C502.63 211.46 502.478 211.806 502.173 212.075C501.868 212.345 501.473 212.479 500.986 212.479C500.5 212.479 500.104 212.345 499.8 212.075C499.495 211.806 499.343 211.46 499.343 211.038ZM507.306 215.318V226.656H504.344V213.49H507.104L507.306 215.318ZM513.142 218.131V218.315C513.142 219.007 513.062 219.648 512.904 220.24C512.746 220.832 512.512 221.348 512.201 221.787C511.891 222.227 511.504 222.569 511.041 222.815C510.584 223.056 510.054 223.176 509.45 223.176C508.882 223.176 508.393 223.05 507.982 222.798C507.572 222.546 507.229 222.197 506.954 221.752C506.679 221.307 506.456 220.797 506.286 220.223C506.116 219.648 505.981 219.042 505.882 218.403V218.166C505.981 217.48 506.116 216.845 506.286 216.259C506.456 215.667 506.679 215.151 506.954 214.712C507.229 214.272 507.569 213.93 507.974 213.684C508.384 213.438 508.873 213.314 509.441 213.314C510.045 213.314 510.575 213.429 511.032 213.657C511.495 213.886 511.882 214.214 512.192 214.642C512.509 215.063 512.746 215.57 512.904 216.162C513.062 216.754 513.142 217.41 513.142 218.131ZM510.18 218.315V218.131C510.18 217.762 510.153 217.425 510.101 217.12C510.048 216.81 509.963 216.54 509.846 216.312C509.734 216.083 509.585 215.907 509.397 215.784C509.21 215.661 508.979 215.6 508.703 215.6C508.387 215.6 508.12 215.649 507.903 215.749C507.692 215.843 507.522 215.989 507.394 216.188C507.271 216.382 507.183 216.625 507.13 216.918C507.083 217.205 507.062 217.542 507.068 217.929V218.649C507.057 219.095 507.101 219.487 507.2 219.827C507.3 220.161 507.473 220.422 507.719 220.609C507.965 220.797 508.299 220.891 508.721 220.891C509.002 220.891 509.236 220.826 509.424 220.697C509.611 220.562 509.761 220.378 509.872 220.144C509.983 219.903 510.062 219.628 510.109 219.317C510.156 219.007 510.18 218.673 510.18 218.315ZM519.47 213.49V215.547H513.739V213.49H519.47ZM514.943 211.126H517.905V219.897C517.905 220.149 517.935 220.346 517.993 220.486C518.052 220.621 518.151 220.718 518.292 220.776C518.438 220.829 518.632 220.855 518.872 220.855C519.042 220.855 519.183 220.853 519.294 220.847C519.405 220.835 519.511 220.82 519.61 220.803V222.921C519.358 223.003 519.095 223.064 518.819 223.105C518.544 223.152 518.251 223.176 517.94 223.176C517.308 223.176 516.766 223.076 516.314 222.877C515.869 222.678 515.529 222.364 515.295 221.937C515.061 221.509 514.943 220.952 514.943 220.267V211.126Z" fill="white"/>
<rect x="562" y="196" width="142" height="41" rx="3" fill="#424242"/>
<rect x="562" y="196" width="142" height="41" rx="3" stroke="#424242" stroke-width="4"/>
<path d="M590.373 218.658H587.191V216.276H590.373C590.807 216.276 591.158 216.203 591.428 216.057C591.697 215.91 591.894 215.708 592.017 215.45C592.146 215.187 592.21 214.891 592.21 214.562C592.21 214.211 592.146 213.886 592.017 213.587C591.894 213.288 591.697 213.048 591.428 212.866C591.158 212.679 590.807 212.585 590.373 212.585H588.352V223H585.267V210.203H590.373C591.398 210.203 592.28 210.391 593.019 210.766C593.763 211.141 594.334 211.656 594.732 212.312C595.131 212.963 595.33 213.707 595.33 214.545C595.33 215.371 595.131 216.092 594.732 216.707C594.334 217.322 593.763 217.803 593.019 218.148C592.28 218.488 591.398 218.658 590.373 218.658ZM596.358 218.342V218.157C596.358 217.46 596.458 216.818 596.657 216.232C596.856 215.641 597.149 215.128 597.536 214.694C597.923 214.261 598.4 213.924 598.969 213.684C599.537 213.438 600.193 213.314 600.938 213.314C601.688 213.314 602.347 213.438 602.915 213.684C603.489 213.924 603.97 214.261 604.356 214.694C604.743 215.128 605.036 215.641 605.235 216.232C605.435 216.818 605.534 217.46 605.534 218.157V218.342C605.534 219.033 605.435 219.675 605.235 220.267C605.036 220.853 604.743 221.365 604.356 221.805C603.97 222.238 603.492 222.575 602.924 222.815C602.355 223.056 601.699 223.176 600.955 223.176C600.211 223.176 599.552 223.056 598.978 222.815C598.403 222.575 597.923 222.238 597.536 221.805C597.149 221.365 596.856 220.853 596.657 220.267C596.458 219.675 596.358 219.033 596.358 218.342ZM599.32 218.157V218.342C599.32 218.699 599.347 219.033 599.399 219.344C599.452 219.654 599.54 219.927 599.663 220.161C599.786 220.39 599.953 220.568 600.164 220.697C600.375 220.826 600.639 220.891 600.955 220.891C601.266 220.891 601.523 220.826 601.729 220.697C601.939 220.568 602.106 220.39 602.229 220.161C602.353 219.927 602.44 219.654 602.493 219.344C602.546 219.033 602.572 218.699 602.572 218.342V218.157C602.572 217.812 602.546 217.486 602.493 217.182C602.44 216.871 602.353 216.599 602.229 216.364C602.106 216.124 601.939 215.937 601.729 215.802C601.518 215.667 601.254 215.6 600.938 215.6C600.627 215.6 600.366 215.667 600.155 215.802C599.95 215.937 599.786 216.124 599.663 216.364C599.54 216.599 599.452 216.871 599.399 217.182C599.347 217.486 599.32 217.812 599.32 218.157ZM611.836 220.328C611.836 220.164 611.78 220.023 611.669 219.906C611.563 219.783 611.376 219.672 611.106 219.572C610.837 219.467 610.459 219.361 609.973 219.256C609.51 219.156 609.073 219.024 608.663 218.86C608.259 218.696 607.904 218.497 607.6 218.263C607.295 218.028 607.055 217.75 606.879 217.428C606.709 217.105 606.624 216.736 606.624 216.32C606.624 215.916 606.709 215.535 606.879 215.178C607.055 214.814 607.31 214.495 607.644 214.22C607.983 213.938 608.396 213.719 608.883 213.561C609.369 213.396 609.923 213.314 610.544 213.314C611.399 213.314 612.138 213.446 612.759 213.71C613.38 213.968 613.857 214.331 614.191 214.8C614.531 215.263 614.701 215.799 614.701 216.408H611.739C611.739 216.168 611.698 215.963 611.616 215.793C611.54 215.623 611.414 215.494 611.238 215.406C611.062 215.312 610.828 215.266 610.535 215.266C610.33 215.266 610.143 215.304 609.973 215.38C609.809 215.456 609.677 215.562 609.577 215.696C609.478 215.831 609.428 215.989 609.428 216.171C609.428 216.3 609.457 216.417 609.516 216.522C609.58 216.622 609.677 216.716 609.806 216.804C609.935 216.886 610.099 216.962 610.298 217.032C610.497 217.097 610.737 217.155 611.019 217.208C611.657 217.325 612.255 217.492 612.812 217.709C613.368 217.926 613.819 218.233 614.165 218.632C614.517 219.03 614.692 219.566 614.692 220.24C614.692 220.662 614.596 221.052 614.402 221.409C614.209 221.761 613.931 222.071 613.567 222.341C613.204 222.604 612.768 222.81 612.258 222.956C611.748 223.103 611.174 223.176 610.535 223.176C609.627 223.176 608.859 223.015 608.232 222.692C607.605 222.364 607.131 221.954 606.809 221.462C606.492 220.964 606.334 220.46 606.334 219.95H609.094C609.105 220.243 609.176 220.483 609.305 220.671C609.439 220.858 609.618 220.996 609.841 221.084C610.063 221.172 610.321 221.216 610.614 221.216C610.884 221.216 611.106 221.178 611.282 221.102C611.464 221.025 611.602 220.923 611.695 220.794C611.789 220.659 611.836 220.504 611.836 220.328ZM621.091 213.49V215.547H615.36V213.49H621.091ZM616.564 211.126H619.526V219.897C619.526 220.149 619.556 220.346 619.614 220.486C619.673 220.621 619.772 220.718 619.913 220.776C620.06 220.829 620.253 220.855 620.493 220.855C620.663 220.855 620.804 220.853 620.915 220.847C621.026 220.835 621.132 220.82 621.231 220.803V222.921C620.979 223.003 620.716 223.064 620.44 223.105C620.165 223.152 619.872 223.176 619.562 223.176C618.929 223.176 618.387 223.076 617.936 222.877C617.49 222.678 617.15 222.364 616.916 221.937C616.682 221.509 616.564 220.952 616.564 220.267V211.126ZM628.245 213.49H630.935V222.631C630.935 223.51 630.732 224.254 630.328 224.863C629.924 225.479 629.358 225.944 628.632 226.261C627.911 226.583 627.067 226.744 626.101 226.744C625.673 226.744 625.236 226.688 624.791 226.577C624.346 226.472 623.93 226.313 623.543 226.103C623.156 225.892 622.831 225.631 622.567 225.32L623.807 223.58C624.047 223.85 624.349 224.078 624.712 224.266C625.075 224.459 625.503 224.556 625.995 224.556C626.423 224.556 626.78 224.479 627.067 224.327C627.36 224.175 627.583 223.952 627.735 223.659C627.888 223.372 627.964 223.023 627.964 222.613V215.74L628.245 213.49ZM621.926 218.359V218.175C621.926 217.454 622.014 216.798 622.189 216.206C622.371 215.608 622.629 215.096 622.963 214.668C623.303 214.234 623.713 213.9 624.193 213.666C624.674 213.432 625.216 213.314 625.819 213.314C626.47 213.314 627.003 213.44 627.419 213.692C627.841 213.938 628.178 214.284 628.43 214.729C628.688 215.175 628.887 215.696 629.027 216.294C629.174 216.886 629.297 217.524 629.396 218.21V218.43C629.297 219.074 629.159 219.684 628.983 220.258C628.813 220.826 628.591 221.33 628.315 221.77C628.04 222.209 627.694 222.555 627.278 222.807C626.868 223.053 626.376 223.176 625.802 223.176C625.204 223.176 624.665 223.056 624.185 222.815C623.71 222.575 623.303 222.238 622.963 221.805C622.629 221.371 622.371 220.861 622.189 220.275C622.014 219.689 621.926 219.051 621.926 218.359ZM624.888 218.175V218.359C624.888 218.717 624.92 219.048 624.984 219.353C625.055 219.657 625.16 219.927 625.301 220.161C625.441 220.39 625.614 220.568 625.819 220.697C626.03 220.826 626.276 220.891 626.558 220.891C626.985 220.891 627.331 220.8 627.595 220.618C627.858 220.437 628.049 220.179 628.166 219.845C628.283 219.511 628.333 219.118 628.315 218.667V217.973C628.327 217.586 628.301 217.246 628.236 216.953C628.172 216.654 628.069 216.405 627.929 216.206C627.794 216.007 627.612 215.857 627.384 215.758C627.161 215.652 626.892 215.6 626.575 215.6C626.3 215.6 626.057 215.664 625.846 215.793C625.635 215.922 625.459 216.104 625.318 216.338C625.178 216.566 625.069 216.839 624.993 217.155C624.923 217.466 624.888 217.806 624.888 218.175ZM635.628 215.846V223H632.666V213.49H635.435L635.628 215.846ZM638.44 213.42L638.388 216.171C638.271 216.159 638.112 216.145 637.913 216.127C637.714 216.109 637.547 216.101 637.412 216.101C637.066 216.101 636.768 216.142 636.516 216.224C636.27 216.3 636.064 216.417 635.9 216.575C635.742 216.728 635.625 216.921 635.549 217.155C635.479 217.39 635.446 217.662 635.452 217.973L634.916 217.621C634.916 216.982 634.978 216.402 635.101 215.881C635.229 215.354 635.411 214.899 635.646 214.519C635.88 214.132 636.164 213.836 636.498 213.631C636.832 213.42 637.207 213.314 637.623 213.314C637.77 213.314 637.913 213.323 638.054 213.341C638.2 213.358 638.329 213.385 638.44 213.42ZM643.89 223.176C643.116 223.176 642.425 223.056 641.815 222.815C641.206 222.569 640.69 222.232 640.269 221.805C639.853 221.377 639.533 220.885 639.311 220.328C639.094 219.771 638.985 219.183 638.985 218.562V218.228C638.985 217.53 639.082 216.886 639.275 216.294C639.469 215.696 639.756 215.175 640.137 214.729C640.518 214.284 640.995 213.938 641.569 213.692C642.144 213.44 642.812 213.314 643.573 213.314C644.247 213.314 644.851 213.423 645.384 213.64C645.917 213.856 646.368 214.167 646.737 214.571C647.112 214.976 647.396 215.465 647.59 216.039C647.789 216.613 647.889 217.258 647.889 217.973V219.177H640.119V217.322H644.997V217.094C645.003 216.777 644.947 216.508 644.83 216.285C644.719 216.062 644.555 215.893 644.338 215.775C644.121 215.658 643.857 215.6 643.547 215.6C643.225 215.6 642.958 215.67 642.747 215.811C642.542 215.951 642.381 216.145 642.264 216.391C642.152 216.631 642.073 216.909 642.026 217.226C641.979 217.542 641.956 217.876 641.956 218.228V218.562C641.956 218.913 642.003 219.232 642.097 219.52C642.196 219.807 642.337 220.053 642.519 220.258C642.706 220.457 642.929 220.612 643.187 220.724C643.45 220.835 643.749 220.891 644.083 220.891C644.487 220.891 644.886 220.814 645.278 220.662C645.671 220.51 646.008 220.258 646.289 219.906L647.634 221.506C647.44 221.781 647.165 222.048 646.808 222.306C646.456 222.563 646.034 222.774 645.542 222.938C645.05 223.097 644.499 223.176 643.89 223.176ZM655.825 219.599C655.825 219.399 655.796 219.221 655.737 219.062C655.679 218.898 655.57 218.746 655.412 218.605C655.254 218.465 655.025 218.324 654.727 218.184C654.434 218.037 654.047 217.885 653.566 217.727C653.004 217.539 652.462 217.328 651.94 217.094C651.419 216.854 650.953 216.575 650.543 216.259C650.133 215.937 649.808 215.562 649.567 215.134C649.327 214.7 649.207 214.196 649.207 213.622C649.207 213.071 649.33 212.576 649.576 212.137C649.822 211.691 650.165 211.313 650.604 211.003C651.05 210.687 651.571 210.446 652.169 210.282C652.767 210.112 653.42 210.027 654.129 210.027C655.066 210.027 655.893 210.191 656.607 210.52C657.328 210.842 657.891 211.302 658.295 211.899C658.705 212.491 658.91 213.191 658.91 214H655.843C655.843 213.678 655.775 213.394 655.641 213.147C655.512 212.901 655.315 212.708 655.052 212.567C654.788 212.427 654.457 212.356 654.059 212.356C653.672 212.356 653.347 212.415 653.083 212.532C652.819 212.649 652.62 212.808 652.485 213.007C652.351 213.2 652.283 213.414 652.283 213.648C652.283 213.842 652.336 214.018 652.441 214.176C652.553 214.328 652.708 214.472 652.907 214.606C653.112 214.741 653.358 214.87 653.646 214.993C653.938 215.116 654.267 215.236 654.63 215.354C655.31 215.57 655.913 215.813 656.44 216.083C656.974 216.347 657.422 216.648 657.785 216.988C658.154 217.322 658.433 217.703 658.62 218.131C658.813 218.559 658.91 219.042 658.91 219.581C658.91 220.155 658.799 220.665 658.576 221.11C658.354 221.556 658.034 221.934 657.618 222.244C657.202 222.549 656.704 222.78 656.124 222.938C655.544 223.097 654.896 223.176 654.182 223.176C653.525 223.176 652.878 223.094 652.239 222.93C651.606 222.76 651.032 222.502 650.517 222.156C650.001 221.805 649.588 221.356 649.277 220.812C648.973 220.261 648.82 219.607 648.82 218.852H651.914C651.914 219.227 651.964 219.543 652.063 219.801C652.163 220.059 652.31 220.267 652.503 220.425C652.696 220.577 652.934 220.688 653.215 220.759C653.496 220.823 653.818 220.855 654.182 220.855C654.574 220.855 654.891 220.8 655.131 220.688C655.371 220.571 655.547 220.419 655.658 220.231C655.77 220.038 655.825 219.827 655.825 219.599ZM667.638 220.891L671.206 223.721L669.29 225.338L665.783 222.508L667.638 220.891ZM671.355 216.347V216.865C671.355 217.844 671.218 218.723 670.942 219.502C670.673 220.275 670.286 220.938 669.782 221.488C669.284 222.033 668.695 222.452 668.016 222.745C667.336 223.032 666.586 223.176 665.766 223.176C664.939 223.176 664.184 223.032 663.498 222.745C662.818 222.452 662.227 222.033 661.723 221.488C661.225 220.938 660.838 220.275 660.562 219.502C660.293 218.723 660.158 217.844 660.158 216.865V216.347C660.158 215.368 660.293 214.489 660.562 213.71C660.838 212.931 661.222 212.269 661.714 211.724C662.212 211.173 662.801 210.754 663.48 210.467C664.166 210.174 664.922 210.027 665.748 210.027C666.568 210.027 667.318 210.174 667.998 210.467C668.684 210.754 669.275 211.173 669.773 211.724C670.277 212.269 670.667 212.931 670.942 213.71C671.218 214.489 671.355 215.368 671.355 216.347ZM668.218 216.865V216.329C668.218 215.696 668.162 215.14 668.051 214.659C667.945 214.173 667.787 213.766 667.576 213.438C667.365 213.109 667.104 212.863 666.794 212.699C666.489 212.529 666.141 212.444 665.748 212.444C665.338 212.444 664.98 212.529 664.676 212.699C664.371 212.863 664.116 213.109 663.911 213.438C663.706 213.766 663.551 214.173 663.445 214.659C663.346 215.14 663.296 215.696 663.296 216.329V216.865C663.296 217.492 663.346 218.049 663.445 218.535C663.551 219.016 663.706 219.423 663.911 219.757C664.122 220.091 664.38 220.343 664.685 220.513C664.995 220.683 665.355 220.768 665.766 220.768C666.158 220.768 666.507 220.683 666.812 220.513C667.116 220.343 667.371 220.091 667.576 219.757C667.787 219.423 667.945 219.016 668.051 218.535C668.162 218.049 668.218 217.492 668.218 216.865ZM681.384 220.627V223H674.915V220.627H681.384ZM676.014 210.203V223H672.929V210.203H676.014Z" fill="white"/>
<rect x="724" y="196" width="129" height="41" rx="3" fill="#424242"/>
<rect x="724" y="196" width="129" height="41" rx="3" stroke="#424242" stroke-width="4"/>
<path d="M755.629 220.627V223H749.16V220.627H755.629ZM750.259 210.203V223H747.174V210.203H750.259ZM761.729 220.609V216.689C761.729 216.42 761.69 216.188 761.614 215.995C761.538 215.802 761.418 215.652 761.254 215.547C761.09 215.436 760.87 215.38 760.595 215.38C760.372 215.38 760.182 215.418 760.023 215.494C759.865 215.57 759.745 215.685 759.663 215.837C759.581 215.989 759.54 216.183 759.54 216.417H756.578C756.578 215.978 756.675 215.57 756.868 215.195C757.067 214.814 757.349 214.483 757.712 214.202C758.081 213.921 758.521 213.704 759.03 213.552C759.546 213.394 760.12 213.314 760.753 213.314C761.509 213.314 762.183 213.44 762.774 213.692C763.372 213.944 763.844 214.322 764.189 214.826C764.535 215.324 764.708 215.951 764.708 216.707V220.601C764.708 221.222 764.743 221.693 764.813 222.016C764.884 222.332 764.983 222.61 765.112 222.851V223H762.142C762.001 222.707 761.896 222.35 761.825 221.928C761.761 221.5 761.729 221.061 761.729 220.609ZM762.089 217.19L762.106 218.772H760.797C760.521 218.772 760.287 218.811 760.094 218.887C759.906 218.963 759.754 219.068 759.637 219.203C759.525 219.332 759.443 219.479 759.391 219.643C759.344 219.807 759.32 219.979 759.32 220.161C759.32 220.337 759.361 220.495 759.443 220.636C759.531 220.771 759.648 220.876 759.795 220.952C759.941 221.028 760.105 221.066 760.287 221.066C760.615 221.066 760.894 221.005 761.122 220.882C761.356 220.753 761.535 220.598 761.658 220.416C761.781 220.234 761.843 220.064 761.843 219.906L762.493 221.119C762.376 221.354 762.241 221.591 762.089 221.831C761.942 222.071 761.758 222.294 761.535 222.499C761.318 222.698 761.052 222.862 760.735 222.991C760.419 223.114 760.035 223.176 759.584 223.176C758.998 223.176 758.459 223.056 757.967 222.815C757.48 222.575 757.091 222.241 756.798 221.813C756.505 221.38 756.358 220.882 756.358 220.319C756.358 219.827 756.446 219.388 756.622 219.001C756.804 218.614 757.076 218.286 757.439 218.017C757.803 217.747 758.266 217.542 758.828 217.401C759.391 217.261 760.053 217.19 760.814 217.19H762.089ZM769.34 215.846V223H766.378V213.49H769.146L769.34 215.846ZM772.152 213.42L772.1 216.171C771.982 216.159 771.824 216.145 771.625 216.127C771.426 216.109 771.259 216.101 771.124 216.101C770.778 216.101 770.479 216.142 770.228 216.224C769.981 216.3 769.776 216.417 769.612 216.575C769.454 216.728 769.337 216.921 769.261 217.155C769.19 217.39 769.158 217.662 769.164 217.973L768.628 217.621C768.628 216.982 768.689 216.402 768.812 215.881C768.941 215.354 769.123 214.899 769.357 214.519C769.592 214.132 769.876 213.836 770.21 213.631C770.544 213.42 770.919 213.314 771.335 213.314C771.481 213.314 771.625 213.323 771.766 213.341C771.912 213.358 772.041 213.385 772.152 213.42ZM777.848 220.609V216.689C777.848 216.42 777.81 216.188 777.733 215.995C777.657 215.802 777.537 215.652 777.373 215.547C777.209 215.436 776.989 215.38 776.714 215.38C776.491 215.38 776.301 215.418 776.143 215.494C775.984 215.57 775.864 215.685 775.782 215.837C775.7 215.989 775.659 216.183 775.659 216.417H772.697C772.697 215.978 772.794 215.57 772.987 215.195C773.187 214.814 773.468 214.483 773.831 214.202C774.2 213.921 774.64 213.704 775.149 213.552C775.665 213.394 776.239 213.314 776.872 213.314C777.628 213.314 778.302 213.44 778.894 213.692C779.491 213.944 779.963 214.322 780.309 214.826C780.654 215.324 780.827 215.951 780.827 216.707V220.601C780.827 221.222 780.862 221.693 780.933 222.016C781.003 222.332 781.103 222.61 781.231 222.851V223H778.261C778.12 222.707 778.015 222.35 777.944 221.928C777.88 221.5 777.848 221.061 777.848 220.609ZM778.208 217.19L778.226 218.772H776.916C776.641 218.772 776.406 218.811 776.213 218.887C776.025 218.963 775.873 219.068 775.756 219.203C775.645 219.332 775.562 219.479 775.51 219.643C775.463 219.807 775.439 219.979 775.439 220.161C775.439 220.337 775.48 220.495 775.562 220.636C775.65 220.771 775.768 220.876 775.914 220.952C776.061 221.028 776.225 221.066 776.406 221.066C776.734 221.066 777.013 221.005 777.241 220.882C777.476 220.753 777.654 220.598 777.777 220.416C777.9 220.234 777.962 220.064 777.962 219.906L778.612 221.119C778.495 221.354 778.36 221.591 778.208 221.831C778.062 222.071 777.877 222.294 777.654 222.499C777.438 222.698 777.171 222.862 776.854 222.991C776.538 223.114 776.154 223.176 775.703 223.176C775.117 223.176 774.578 223.056 774.086 222.815C773.6 222.575 773.21 222.241 772.917 221.813C772.624 221.38 772.478 220.882 772.478 220.319C772.478 219.827 772.565 219.388 772.741 219.001C772.923 218.614 773.195 218.286 773.559 218.017C773.922 217.747 774.385 217.542 774.947 217.401C775.51 217.261 776.172 217.19 776.934 217.19H778.208ZM785.758 220.97L787.63 213.49H790.75L787.639 223H785.793L785.758 220.97ZM784.65 213.49L786.496 220.97L786.479 223H784.624L781.521 213.49H784.65ZM796.111 223.176C795.338 223.176 794.646 223.056 794.037 222.815C793.428 222.569 792.912 222.232 792.49 221.805C792.074 221.377 791.755 220.885 791.532 220.328C791.315 219.771 791.207 219.183 791.207 218.562V218.228C791.207 217.53 791.304 216.886 791.497 216.294C791.69 215.696 791.978 215.175 792.358 214.729C792.739 214.284 793.217 213.938 793.791 213.692C794.365 213.44 795.033 213.314 795.795 213.314C796.469 213.314 797.072 213.423 797.605 213.64C798.139 213.856 798.59 214.167 798.959 214.571C799.334 214.976 799.618 215.465 799.812 216.039C800.011 216.613 800.11 217.258 800.11 217.973V219.177H792.341V217.322H797.219V217.094C797.225 216.777 797.169 216.508 797.052 216.285C796.94 216.062 796.776 215.893 796.56 215.775C796.343 215.658 796.079 215.6 795.769 215.6C795.446 215.6 795.18 215.67 794.969 215.811C794.764 215.951 794.603 216.145 794.485 216.391C794.374 216.631 794.295 216.909 794.248 217.226C794.201 217.542 794.178 217.876 794.178 218.228V218.562C794.178 218.913 794.225 219.232 794.318 219.52C794.418 219.807 794.559 220.053 794.74 220.258C794.928 220.457 795.15 220.612 795.408 220.724C795.672 220.835 795.971 220.891 796.305 220.891C796.709 220.891 797.107 220.814 797.5 220.662C797.893 220.51 798.229 220.258 798.511 219.906L799.855 221.506C799.662 221.781 799.387 222.048 799.029 222.306C798.678 222.563 798.256 222.774 797.764 222.938C797.271 223.097 796.721 223.176 796.111 223.176ZM804.443 209.5V223H801.473V209.5H804.443ZM817.267 210.203V223H814.305V213.543L811.387 214.396V212.146L816.994 210.203H817.267ZM830.081 220.715V223H821.151V221.066L825.265 216.742C825.628 216.326 825.921 215.954 826.144 215.626C826.366 215.292 826.527 214.99 826.627 214.721C826.732 214.451 826.785 214.208 826.785 213.991C826.785 213.622 826.729 213.314 826.618 213.068C826.513 212.816 826.354 212.626 826.144 212.497C825.938 212.368 825.684 212.304 825.379 212.304C825.074 212.304 824.808 212.392 824.579 212.567C824.351 212.743 824.172 212.983 824.043 213.288C823.92 213.593 823.858 213.936 823.858 214.316H820.888C820.888 213.531 821.078 212.813 821.459 212.163C821.846 211.513 822.382 210.994 823.067 210.607C823.753 210.215 824.547 210.019 825.449 210.019C826.393 210.019 827.184 210.165 827.822 210.458C828.461 210.751 828.941 211.176 829.264 211.732C829.592 212.283 829.756 212.948 829.756 213.728C829.756 214.173 829.686 214.601 829.545 215.011C829.404 215.421 829.202 215.828 828.938 216.232C828.675 216.631 828.353 217.041 827.972 217.463C827.597 217.885 827.169 218.333 826.688 218.808L825.036 220.715H830.081Z" fill="white"/>
<path d="M1066 0H1348C1356.28 0 1363 6.71573 1363 15V282C1363 290.284 1356.28 297 1348 297H1066V0Z" fill="white"/>
<path d="M1301.25 218.194L1318.05 207.744L1318.35 170.404L1303.74 162.364L1303.04 139.104C1303.04 139.104 1293.41 133.154 1287.04 129.364V108.494C1287.04 108.494 1276.53 101.914 1272.43 99.4543V75.8043L1257.82 67.5943V41.0343C1257.82 41.0343 1230.95 27.8043 1225.85 25.2943C1225.47 25.1143 1225.04 25.3843 1225.04 25.8043C1225.13 74.3143 1225.13 122.014 1224.9 170.744L1301.23 218.194H1301.25Z" fill="#006666" stroke="black" stroke-width="2" stroke-miterlimit="10"/>
<path d="M1126.91 218.294L1110.73 207.744L1110.64 170.114L1125.25 161.074L1125.95 138.814C1125.95 138.814 1135.58 132.864 1141.95 129.074V108.204C1141.95 108.204 1152.46 101.624 1156.56 99.1643V75.5143L1171.17 67.3043V40.7443C1171.17 40.7443 1199.8 27.7243 1205.42 25.0643C1205.87 24.8543 1206.39 25.1843 1206.39 25.6843C1206.3 74.1343 1205.62 170.454 1205.62 170.454L1126.92 218.294H1126.91Z" fill="#006666" stroke="black" stroke-width="2" stroke-miterlimit="10"/>
<path d="M1291.27 224.404L1308.07 213.954L1308.37 176.614L1293.76 168.574L1293.06 145.314C1293.06 145.314 1283.43 139.364 1277.06 135.574V114.704C1277.06 114.704 1266.55 108.124 1262.45 105.664V82.0143L1247.84 73.8043V47.2443C1247.84 47.2443 1220.97 34.0143 1215.87 31.5043C1215.49 31.3243 1215.06 31.5943 1215.06 32.0143C1215.15 80.5243 1215.15 128.224 1214.92 176.954L1291.25 224.404H1291.27Z" fill="#006666" stroke="black" stroke-width="2" stroke-miterlimit="10"/>
<path d="M1138.26 222.844L1215.08 176.944L1291.12 223.834C1291.29 223.944 1291.21 224.204 1291.01 224.194L1138.49 223.674C1138.04 223.674 1137.87 223.084 1138.26 222.844Z" stroke="black" stroke-width="2" stroke-miterlimit="10"/>
<path d="M1278.29 176.764V155.604L1262.28 145.914V124.844L1247.74 116.274V90.9743L1226.11 79.1643L1226.39 183.834L1254.87 200.444L1291.06 222.814C1292.16 223.474 1293.56 222.684 1293.56 221.404V186.354C1292.47 185.694 1278.29 176.774 1278.29 176.774V176.764Z" fill="#FB724D"/>
<path d="M1254.87 200.444L1226.39 183.834L1226.11 79.1643L1247.74 90.9743V116.274L1262.28 124.844V145.914L1278.29 155.604V176.764V176.774C1278.29 176.774 1292.47 185.694 1293.56 186.354V221.404C1293.56 222.684 1292.16 223.474 1291.06 222.814L1254.87 200.444ZM1254.87 200.444L1255.11 155.464" stroke="black" stroke-width="2" stroke-miterlimit="10"/>
<path d="M1135.54 224.234L1119.36 213.684L1119.27 176.054L1133.88 167.014L1134.58 144.754C1134.58 144.754 1144.21 138.804 1150.58 135.014V114.144C1150.58 114.144 1161.09 107.564 1165.19 105.104V81.4543L1179.8 73.2443V46.6843C1179.8 46.6843 1208.43 33.6643 1214.05 31.0043C1214.5 30.7943 1215.02 31.1243 1215.02 31.6243C1214.93 80.0743 1214.25 176.394 1214.25 176.394L1135.55 224.234H1135.54Z" fill="#006666" stroke="black" stroke-width="2" stroke-miterlimit="10"/>
<path d="M1149.36 176.814V155.654L1165.37 145.964V124.894L1179.91 116.324V91.0243L1201.54 79.2143L1201.26 183.884L1173.06 201.754L1172.54 155.514V201.814L1136.6 222.864C1135.5 223.524 1134.1 222.734 1134.1 221.454V186.404C1135.19 185.744 1149.37 176.824 1149.37 176.824L1149.36 176.814Z" fill="#FB724D" stroke="black" stroke-width="2" stroke-miterlimit="10"/>
<path d="M1172.57 202.064L1255.41 201.234" stroke="black" stroke-width="2" stroke-miterlimit="10"/>
<path d="M1140.6 258L1152.84 229.68H1158L1170.32 258H1163.28L1160.84 252H1149.84L1147.48 258H1140.6ZM1158.72 246.72L1155.24 237.92L1151.8 246.72H1158.72ZM1173.17 258V229.68H1184.13C1189.93 229.68 1194.81 231.68 1194.81 238.28C1194.81 242.24 1192.69 245.32 1188.69 246.04L1195.89 258H1188.41L1182.49 246.68H1179.41V258H1173.17ZM1179.41 234.96V241.4H1183.09C1185.37 241.4 1188.33 241.32 1188.33 238.24C1188.33 235.4 1185.77 234.96 1183.49 234.96H1179.41ZM1203.89 258V235.2H1195.81V229.68H1218.21V235.2H1210.13V258H1203.89ZM1221.3 258V229.68H1227.54V258H1221.3ZM1256.53 233.12L1251.73 237.04C1250.49 235.56 1248.69 234.72 1246.37 234.72C1241.65 234.72 1238.17 238.56 1238.17 243.84C1238.17 249.12 1241.65 252.96 1246.17 252.96C1248.69 252.96 1250.73 251.84 1252.01 249.92L1257.21 253.8C1254.85 257.16 1250.85 258.72 1246.97 258.72C1238.13 258.72 1231.69 252.92 1231.69 243.84C1231.69 234.76 1238.13 228.96 1246.97 228.96C1250.13 228.96 1254.13 230.04 1256.53 233.12ZM1257.68 258L1269.92 229.68H1275.08L1287.4 258H1280.36L1277.92 252H1266.92L1264.56 258H1257.68ZM1275.8 246.72L1272.32 237.92L1268.88 246.72H1275.8Z" fill="#002121"/>
</svg>
